<?xml version="1.0" encoding="UTF-8"?>
<svg xmlns="http://www.w3.org/2000/svg" xmlns:xlink="http://www.w3.org/1999/xlink" width="600px" height="262px" viewBox="0 0 598 262" version="1.1">
<g id="surface1">
<path style=" stroke:none;fill-rule:nonzero;fill:rgb(1.176471%,56.470588%,27.843137%);fill-opacity:1;" d="M 210.214844 88.207031 C 208.804688 88.332031 207.390625 88.148438 206.0625 87.667969 C 210.917969 87.167969 215.777344 86.542969 220.636719 86.167969 C 227.695312 85.585938 234.796875 85.128906 241.898438 84.628906 C 253.402344 83.839844 264.90625 83.589844 276.449219 83.550781 C 290.402344 83.550781 304.355469 84.007812 318.308594 84.753906 C 328.527344 85.253906 338.742188 86.070312 348.957031 87.207031 C 368.816406 89.085938 388.460938 92.804688 407.636719 98.3125 C 415.949219 100.585938 423.894531 104.046875 431.222656 108.585938 C 433.699219 110.125 435.878906 112.097656 437.660156 114.40625 C 440.546875 117.578125 440.324219 122.492188 437.164062 125.386719 C 432.789062 129.726562 427.554688 133.097656 421.796875 135.285156 C 409.734375 140.378906 397.222656 144.332031 384.421875 147.09375 C 374.125 149.546875 363.660156 151.460938 353.277344 153.125 C 343.972656 154.578125 334.628906 155.785156 325.285156 156.867188 C 313.367188 158.199219 301.367188 159.238281 289.40625 159.945312 C 267.398438 161.234375 245.386719 161.484375 223.378906 160.859375 C 214.242188 160.609375 205.105469 160.234375 195.96875 159.613281 C 186.832031 158.988281 178.070312 158.238281 169.101562 157.242188 C 162.207031 156.492188 155.355469 155.621094 148.335938 154.789062 L 148.335938 161.027344 C 148.414062 161.675781 148.183594 162.320312 147.714844 162.773438 C 140.113281 169.511719 132.890625 176.332031 125.578125 182.984375 C 125.578125 182.984375 125.578125 182.984375 125.082031 182.984375 L 125.082031 181.070312 C 125.082031 171.214844 125.082031 161.316406 125.082031 151.460938 C 125.082031 150.214844 124.789062 149.632812 123.585938 149.257812 C 114.535156 146.488281 105.894531 142.53125 97.882812 137.488281 C 93.292969 134.757812 89.453125 130.925781 86.710938 126.34375 C 83.675781 121.011719 83.867188 114.433594 87.207031 109.292969 C 90.78125 103.84375 95.449219 99.199219 100.914062 95.652344 C 107.859375 90.769531 115.273438 86.589844 123.046875 83.175781 C 124.210938 82.800781 124.929688 81.640625 124.75 80.429688 C 124.75 76.851562 124.75 73.277344 124.75 69.660156 C 124.652344 69.023438 124.851562 68.378906 125.289062 67.910156 L 148.128906 45.703125 L 148.128906 47.867188 C 148.128906 55.769531 148.128906 63.671875 148.128906 71.53125 C 148.128906 73.027344 148.378906 73.359375 149.789062 72.859375 C 167.316406 66.957031 185.128906 62.007812 203.070312 57.804688 C 215.527344 54.894531 228.359375 52.359375 241.109375 50.113281 C 251.574219 48.28125 262.066406 46.660156 272.589844 45.246094 C 281.433594 44.039062 290.320312 43.085938 299.167969 42.210938 C 312.789062 40.90625 326.421875 39.953125 340.070312 39.339844 C 359.050781 38.425781 378.027344 38.46875 397.003906 39.09375 C 407.304688 39.453125 417.574219 40.1875 427.820312 41.296875 C 441.472656 42.609375 455.035156 44.734375 468.433594 47.660156 C 483.664062 50.636719 498.382812 55.820312 512.121094 63.046875 L 513.53125 63.917969 C 513.53125 64.167969 513.53125 64.292969 513.242188 64.335938 C 507.675781 62.296875 502.152344 60.175781 496.628906 58.304688 C 484.628906 54.5625 472.355469 51.753906 459.921875 49.90625 C 451.28125 48.65625 442.644531 47.617188 433.921875 46.953125 C 425.824219 46.328125 417.6875 45.871094 409.503906 45.496094 C 404.191406 45.289062 398.832031 45.496094 393.476562 45.164062 C 388.863281 44.78125 384.226562 44.714844 379.605469 44.957031 C 373.582031 45.332031 367.5625 44.957031 361.582031 45.246094 C 353.691406 45.621094 345.84375 45.828125 337.953125 46.371094 C 328.070312 47.035156 318.1875 47.824219 308.300781 48.742188 C 285.878906 50.820312 263.5625 53.839844 241.359375 57.804688 C 223.574219 60.933594 205.957031 64.957031 188.578125 69.867188 C 172.691406 74.207031 157.257812 80.058594 142.480469 87.332031 C 133.300781 91.574219 125.011719 97.53125 118.0625 104.882812 C 115.445312 107.785156 113.429688 111.179688 112.125 114.863281 C 110.699219 118.738281 111.621094 123.089844 114.492188 126.050781 C 117.941406 129.917969 122.191406 132.984375 126.949219 135.035156 C 137.292969 139.722656 148.171875 143.117188 159.34375 145.140625 C 169.890625 147.300781 180.5625 148.882812 191.277344 150.046875 C 197.175781 150.671875 203.113281 151.210938 209.050781 151.667969 C 215.984375 152.210938 222.921875 152.582031 229.816406 152.917969 C 234.464844 153.167969 239.160156 153.375 243.851562 153.375 C 253.652344 153.375 263.492188 153.375 273.292969 153.375 C 280.976562 153.375 288.617188 153 296.257812 152.582031 C 305.894531 152.085938 315.527344 151.460938 325.328125 150.460938 C 344.941406 148.785156 364.382812 145.515625 383.46875 140.691406 C 390.257812 138.910156 396.863281 136.488281 403.191406 133.453125 C 406.902344 131.742188 410.242188 129.324219 413.035156 126.34375 C 413.492188 125.800781 413.90625 125.261719 414.324219 124.679688 C 415.769531 122.8125 415.96875 120.257812 414.820312 118.191406 C 412.507812 113.574219 408.917969 109.722656 404.480469 107.085938 C 396.765625 102.507812 388.347656 99.246094 379.5625 97.4375 C 367.40625 94.546875 355.054688 92.558594 342.605469 91.492188 C 334.296875 90.742188 325.992188 90.078125 317.6875 89.703125 C 311.914062 89.414062 306.144531 89.203125 300.328125 88.957031 C 295.761719 88.746094 291.191406 88.957031 286.625 88.664062 C 269.140625 87.875 251.660156 88.664062 234.175781 88.332031 L 212.207031 87.957031 C 211.53125 87.914062 210.855469 88 210.214844 88.207031 Z M 210.214844 88.207031 "/>
<path style=" stroke:none;fill-rule:nonzero;fill:rgb(0.392157%,38.039216%,19.607843%);fill-opacity:1;" d="M 210.214844 88.207031 C 210.753906 87.75 211.417969 87.914062 212 87.914062 C 235.503906 87.914062 258.96875 87.914062 282.597656 87.914062 C 287.621094 87.914062 292.644531 87.914062 297.628906 88.25 C 303.402344 88.582031 309.175781 88.582031 314.945312 88.914062 C 320.71875 89.246094 326.65625 89.539062 332.511719 90.035156 C 338.367188 90.535156 344.640625 91.078125 350.703125 91.824219 C 364.738281 93.136719 378.585938 96.023438 391.980469 100.433594 C 398.1875 102.394531 403.957031 105.546875 408.964844 109.707031 C 411.933594 112.238281 414.265625 115.425781 415.777344 119.023438 C 416.621094 121.550781 415.867188 124.335938 413.867188 126.09375 C 410.820312 129.570312 407.050781 132.339844 402.820312 134.203125 C 396.742188 137.066406 390.417969 139.375 383.925781 141.105469 C 376.660156 143.113281 369.300781 144.753906 361.875 146.011719 C 356.019531 147.011719 350.164062 147.96875 344.308594 148.800781 C 339.863281 149.464844 335.378906 149.839844 330.894531 150.339844 C 325.203125 150.921875 319.472656 151.542969 313.742188 152.085938 C 311.832031 152.085938 309.878906 152.085938 307.96875 152.417969 C 302.445312 152.707031 296.882812 152.957031 291.359375 153.289062 C 274.746094 154.207031 258.136719 153.871094 241.277344 153.871094 C 235.003906 153.871094 228.816406 153.539062 222.464844 153.167969 C 217.105469 152.832031 211.75 152.542969 206.394531 152.042969 C 199.996094 151.460938 193.601562 150.796875 187.25 150.046875 C 177.820312 148.964844 168.4375 147.550781 159.132812 145.640625 C 146.550781 143.484375 134.375 139.386719 123.046875 133.496094 C 119.480469 131.589844 116.332031 128.988281 113.785156 125.84375 C 110.359375 121.316406 110.257812 115.089844 113.535156 110.457031 C 117.671875 103.664062 123.367188 97.960938 130.148438 93.820312 C 140.082031 87.441406 150.714844 82.222656 161.832031 78.265625 C 175.03125 73.3125 188.507812 69.148438 202.199219 65.792969 C 214.160156 62.753906 226.203125 60.21875 238.328125 58.015625 C 247.132812 56.390625 255.9375 54.9375 264.78125 53.523438 C 270.511719 52.609375 276.324219 51.984375 282.058594 51.277344 C 288.824219 50.445312 295.554688 49.53125 302.320312 48.824219 C 306.890625 48.324219 311.5 48.074219 316.109375 47.699219 L 331.847656 46.285156 C 333.800781 46.285156 336 46.285156 337.746094 45.953125 C 341.191406 45.746094 344.679688 45.746094 348.335938 45.746094 C 357.679688 45.121094 367.0625 45.164062 376.40625 44.914062 C 380.976562 44.914062 385.542969 44.5 390.113281 44.914062 C 395.59375 45.207031 401.117188 44.914062 406.722656 45.207031 C 412.328125 45.496094 417.0625 45.621094 422.214844 45.914062 C 428.234375 46.246094 434.257812 46.703125 440.277344 47.367188 C 449.621094 48.40625 459.007812 49.53125 468.308594 51.152344 C 481.039062 53.269531 493.550781 56.554688 505.683594 60.96875 C 508.300781 61.964844 510.832031 63.128906 513.367188 64.210938 C 513.367188 64.542969 513.367188 64.75 512.992188 64.585938 C 507.136719 62.628906 501.28125 60.425781 495.300781 59.136719 C 486.996094 57.015625 478.234375 55.394531 469.597656 54.0625 C 459.214844 52.441406 448.832031 51.320312 438.410156 50.613281 C 421.214844 49.40625 404.023438 49.074219 386.789062 49.363281 C 375.828125 49.363281 364.863281 49.945312 353.898438 50.613281 C 344.183594 51.195312 334.492188 51.984375 324.832031 52.980469 C 315.859375 53.855469 306.847656 54.8125 297.921875 55.976562 C 285.960938 57.597656 274.082031 59.46875 262.207031 61.589844 C 241.769531 65.148438 221.574219 69.984375 201.742188 76.0625 C 188.535156 79.792969 175.777344 84.964844 163.703125 91.492188 C 157.8125 94.621094 152.582031 98.855469 148.296875 103.96875 C 146.089844 106.496094 144.726562 109.652344 144.390625 112.992188 C 144.296875 117.144531 146.195312 121.089844 149.5 123.597656 C 154.28125 127.671875 159.832031 130.742188 165.820312 132.621094 C 175.828125 136.015625 186.132812 138.480469 196.59375 139.984375 C 204.898438 141.3125 213.660156 142.269531 222.171875 143.058594 C 227.53125 143.601562 232.847656 143.933594 238.203125 144.183594 C 251.90625 144.847656 265.652344 145.179688 279.355469 144.890625 C 291.234375 144.640625 303.070312 144.140625 314.90625 143.269531 C 324.621094 142.519531 334.339844 141.644531 343.972656 140.230469 C 353.867188 139.164062 363.617188 137.015625 373.042969 133.828125 C 376.941406 132.414062 380.574219 130.363281 383.800781 127.757812 C 386.003906 126.125 387.359375 123.59375 387.496094 120.855469 C 387.632812 118.113281 386.535156 115.457031 384.503906 113.617188 C 381.15625 110.28125 377.09375 107.75 372.628906 106.214844 C 363.953125 102.953125 354.984375 100.546875 345.84375 99.019531 C 337.246094 97.398438 328.566406 96.234375 319.886719 95.191406 C 313.453125 94.402344 306.972656 93.863281 300.496094 93.28125 C 292.1875 92.53125 283.882812 91.824219 275.289062 91.242188 C 268.519531 90.742188 261.75 90.410156 254.980469 90.078125 C 245.222656 89.578125 235.460938 89.164062 225.910156 88.746094 Z M 210.214844 88.207031 "/>
<path style=" stroke:none;fill-rule:nonzero;fill:rgb(0%,47.843137%,26.666667%);fill-opacity:1;" d="M 148.046875 167.222656 C 148.046875 169.136719 148.046875 170.675781 148.046875 172.171875 C 148.074219 172.722656 147.824219 173.253906 147.382812 173.585938 L 125.414062 192.382812 L 124.789062 192.675781 C 124.789062 190.925781 124.789062 189.265625 124.789062 187.640625 C 124.820312 187.203125 125.050781 186.804688 125.414062 186.5625 Z M 148.046875 167.222656 "/>
<path style=" stroke:none;fill-rule:nonzero;fill:rgb(0%,47.843137%,26.666667%);fill-opacity:1;" d="M 124.789062 202.445312 C 124.789062 200.492188 124.789062 198.910156 124.789062 197.332031 C 124.789062 196.839844 125.019531 196.375 125.414062 196.085938 C 132.804688 189.816406 140.171875 183.511719 147.507812 177.160156 L 148.046875 177.160156 C 148.046875 178.910156 148.046875 180.570312 148.046875 182.234375 C 148.046875 182.777344 147.671875 182.984375 147.339844 183.273438 Z M 124.789062 202.445312 "/>
<path style=" stroke:none;fill-rule:nonzero;fill:rgb(7.843137%,29.411765%,58.039216%);fill-opacity:1;" d="M 325.453125 221.160156 C 326.472656 221.605469 327.578125 221.820312 328.691406 221.785156 C 329.523438 221.785156 330.351562 221.410156 330.476562 220.453125 C 330.601562 219.496094 329.855469 219.164062 329.148438 218.832031 L 326.949219 217.917969 C 325.652344 217.394531 324.882812 216.058594 325.078125 214.671875 C 325.140625 213.277344 326.097656 212.082031 327.445312 211.722656 C 328.890625 211.347656 330.40625 211.347656 331.847656 211.722656 C 332.804688 211.96875 332.265625 212.636719 332.265625 213.136719 C 332.265625 213.632812 331.808594 213.757812 331.351562 213.59375 C 330.574219 213.382812 329.757812 213.382812 328.984375 213.59375 C 328.292969 213.703125 327.761719 214.265625 327.695312 214.964844 C 327.652344 215.566406 328.03125 216.121094 328.609375 216.296875 C 329.441406 216.628906 330.3125 216.917969 331.101562 217.292969 C 332.554688 217.832031 333.414062 219.339844 333.136719 220.871094 C 332.9375 222.359375 331.757812 223.519531 330.269531 223.699219 C 328.972656 223.800781 327.664062 223.800781 326.367188 223.699219 C 324.5 223.367188 325.578125 222.078125 325.453125 221.160156 Z M 325.453125 221.160156 "/>
<path style=" stroke:none;fill-rule:nonzero;fill:rgb(7.45098%,29.411765%,58.039216%);fill-opacity:1;" d="M 337.703125 218.417969 C 337.703125 217.128906 337.703125 215.796875 337.703125 214.507812 C 337.703125 213.21875 337.703125 213.46875 336.707031 213.550781 L 335.128906 213.550781 C 334.421875 213.550781 334.050781 213.550781 334.050781 212.636719 C 334.050781 211.722656 334.421875 211.636719 335.171875 211.636719 L 342.6875 211.636719 C 343.433594 211.636719 343.851562 211.636719 343.808594 212.636719 C 343.765625 213.632812 343.433594 213.550781 342.769531 213.550781 C 340.195312 213.550781 340.195312 213.550781 340.195312 216.128906 C 340.195312 218.707031 340.195312 220.289062 340.195312 222.574219 C 340.195312 223.613281 339.613281 223.488281 338.992188 223.488281 C 338.367188 223.488281 337.578125 223.738281 337.664062 222.574219 C 337.746094 221.410156 337.703125 219.789062 337.703125 218.417969 Z M 337.703125 218.417969 "/>
<path style=" stroke:none;fill-rule:nonzero;fill:rgb(5.098039%,30.196078%,58.431373%);fill-opacity:1;" d="M 247.796875 215.921875 C 248.371094 215.03125 249.355469 214.496094 250.414062 214.496094 C 251.46875 214.496094 252.453125 215.03125 253.027344 215.921875 L 253.859375 215.132812 C 254.816406 214.347656 256.132812 214.171875 257.265625 214.671875 C 258.28125 215.136719 258.910156 216.175781 258.84375 217.292969 C 258.84375 219 258.84375 220.703125 258.84375 222.410156 C 258.84375 222.78125 258.84375 223.242188 258.304688 223.28125 C 257.761719 223.324219 257.679688 222.824219 257.679688 222.367188 L 257.679688 217.875 C 257.679688 216.753906 257.390625 215.796875 256.101562 215.589844 C 254.945312 215.425781 253.855469 216.160156 253.570312 217.292969 C 253.40625 217.804688 253.320312 218.335938 253.320312 218.875 C 253.320312 220.039062 253.320312 221.203125 253.320312 222.367188 C 253.320312 222.78125 253.609375 223.488281 252.78125 223.488281 C 251.949219 223.488281 252.238281 222.78125 252.238281 222.367188 C 252.238281 220.910156 252.238281 219.414062 252.238281 217.960938 C 252.238281 216.503906 251.949219 215.796875 250.578125 215.546875 C 249.304688 215.421875 248.15625 216.316406 247.960938 217.585938 C 247.917969 218.207031 247.917969 218.832031 247.960938 219.457031 L 247.960938 222.824219 C 247.960938 223.242188 247.960938 223.488281 247.382812 223.488281 C 247.21875 223.519531 247.054688 223.46875 246.9375 223.351562 C 246.820312 223.234375 246.769531 223.070312 246.800781 222.90625 L 246.800781 215.378906 C 246.800781 215.046875 246.800781 214.921875 247.257812 214.882812 C 247.714844 214.839844 247.503906 215.503906 247.796875 215.921875 Z M 247.796875 215.921875 "/>
<path style=" stroke:none;fill-rule:nonzero;fill:rgb(6.27451%,29.803922%,58.431373%);fill-opacity:1;" d="M 229.109375 216.253906 C 229.972656 214.84375 231.707031 214.238281 233.261719 214.796875 C 234.550781 215.257812 235.046875 216.210938 235.046875 218.167969 L 235.046875 222.617188 C 235.046875 223.03125 235.046875 223.449219 234.507812 223.488281 C 233.96875 223.53125 233.925781 223.074219 233.925781 222.660156 L 233.925781 217.960938 C 233.925781 216.792969 233.675781 215.753906 232.265625 215.546875 C 231 215.421875 229.863281 216.324219 229.691406 217.585938 C 229.496094 219.144531 229.425781 220.714844 229.484375 222.285156 C 229.484375 222.742188 229.855469 223.488281 228.902344 223.449219 C 227.945312 223.40625 228.402344 222.742188 228.402344 222.324219 C 228.402344 220.871094 228.402344 219.371094 228.402344 217.917969 C 228.402344 216.460938 228.070312 215.753906 226.699219 215.546875 C 225.472656 215.460938 224.371094 216.296875 224.125 217.5 C 224.058594 219.246094 224.058594 220.996094 224.125 222.742188 C 224.125 223.199219 224.125 223.53125 223.460938 223.488281 C 222.796875 223.449219 222.960938 223.074219 222.960938 222.699219 L 222.960938 217.625 C 222.960938 217.003906 222.960938 216.421875 222.960938 215.839844 C 222.960938 215.257812 222.671875 214.921875 223.460938 214.882812 C 224.25 214.839844 223.875 215.503906 224.125 215.960938 C 224.773438 215.105469 225.792969 214.613281 226.867188 214.632812 C 227.871094 214.667969 228.757812 215.308594 229.109375 216.253906 Z M 229.109375 216.253906 "/>
<path style=" stroke:none;fill-rule:nonzero;fill:rgb(6.27451%,29.803922%,58.431373%);fill-opacity:1;" d="M 302.238281 219.582031 L 302.238281 217.542969 C 302.238281 216.628906 302.53125 215.421875 300.867188 215.753906 C 300.535156 215.753906 300.371094 215.753906 300.371094 215.257812 C 300.371094 214.757812 300.660156 214.839844 300.953125 214.882812 C 302.40625 215.132812 302.238281 214.175781 302.238281 213.257812 C 302.238281 211.222656 303.070312 210.515625 304.9375 210.640625 C 305.269531 210.640625 305.726562 210.640625 305.6875 211.097656 C 305.644531 211.554688 305.3125 211.472656 305.023438 211.472656 C 304.351562 211.601562 303.777344 212.03125 303.460938 212.640625 C 303.144531 213.246094 303.125 213.964844 303.402344 214.589844 C 303.734375 215.089844 304.234375 214.589844 304.648438 214.882812 C 305.0625 215.171875 305.4375 214.882812 305.4375 215.339844 C 305.4375 215.796875 304.9375 215.796875 304.648438 215.753906 C 303.484375 215.753906 303.320312 216.128906 303.359375 217.128906 C 303.359375 218.957031 303.359375 220.785156 303.359375 222.617188 C 303.359375 223.03125 303.359375 223.488281 302.820312 223.488281 C 302.28125 223.488281 302.238281 223.074219 302.238281 222.660156 Z M 302.238281 219.582031 "/>
<path style=" stroke:none;fill-rule:nonzero;fill:rgb(3.529412%,30.588235%,59.215686%);fill-opacity:1;" d="M 281.683594 216.253906 C 282.347656 215.464844 282.929688 214.757812 283.925781 214.796875 C 284.921875 214.839844 284.757812 214.796875 284.757812 215.421875 C 284.757812 216.046875 284.421875 215.921875 284.050781 215.921875 C 282.878906 215.894531 281.894531 216.789062 281.808594 217.960938 C 281.664062 219.523438 281.664062 221.09375 281.808594 222.660156 C 281.808594 223.074219 281.808594 223.65625 281.269531 223.65625 C 280.726562 223.65625 280.6875 223.117188 280.6875 222.699219 C 280.6875 220.496094 280.6875 218.292969 280.6875 216.085938 C 280.6875 215.714844 280.355469 215.046875 281.226562 215.046875 C 282.097656 215.046875 281.390625 215.628906 281.683594 216.253906 Z M 281.683594 216.253906 "/>
<path style=" stroke:none;fill-rule:nonzero;fill:rgb(7.843137%,29.411765%,58.039216%);fill-opacity:1;" d="M 351.65625 217.585938 C 353.402344 216.753906 353.898438 215.921875 353.734375 214.300781 C 353.566406 212.675781 352.738281 212.09375 350.992188 211.804688 C 349.386719 211.71875 347.78125 211.71875 346.175781 211.804688 C 345.34375 211.804688 345.136719 212.09375 345.136719 212.886719 C 345.136719 216.128906 345.136719 219.332031 345.136719 222.574219 C 345.136719 223.324219 345.136719 223.65625 346.132812 223.699219 C 347.128906 223.738281 347.917969 223.699219 347.710938 222.160156 C 347.628906 221.496094 347.628906 220.824219 347.710938 220.164062 C 347.710938 219.664062 347.253906 218.875 348.210938 218.75 C 348.984375 218.554688 349.785156 218.941406 350.121094 219.664062 L 350.910156 221.660156 C 351.78125 223.738281 351.78125 223.738281 353.984375 223.65625 L 354.523438 223.65625 C 353.785156 221.535156 352.824219 219.5 351.65625 217.585938 Z M 348.832031 216.710938 C 347.296875 216.710938 348.128906 215.671875 347.878906 215.132812 C 347.628906 214.589844 347.585938 213.425781 349 213.507812 C 350.410156 213.59375 351.40625 214.050781 351.367188 215.089844 C 351.324219 216.128906 350.285156 216.628906 348.832031 216.710938 Z M 348.832031 216.710938 "/>
<path style=" stroke:none;fill-rule:nonzero;fill:rgb(7.843137%,29.411765%,58.039216%);fill-opacity:1;" d="M 363.078125 212.34375 C 363.078125 212.054688 362.828125 211.722656 362.371094 211.636719 C 361.738281 211.375 361.023438 211.410156 360.421875 211.730469 C 359.820312 212.054688 359.390625 212.628906 359.257812 213.300781 C 358.800781 214.382812 358.34375 215.464844 357.929688 216.546875 C 356.972656 218.789062 356.058594 221.078125 355.019531 223.53125 C 356.140625 223.199219 357.511719 224.195312 357.886719 222.824219 C 358.261719 221.453125 359.546875 220.453125 361.292969 220.703125 C 361.789062 220.765625 362.289062 220.765625 362.785156 220.703125 C 363.574219 220.703125 363.949219 220.953125 364.238281 221.703125 C 364.988281 223.738281 365.363281 223.863281 367.605469 223.242188 Z M 362.828125 218.789062 L 359.753906 218.789062 C 359.507812 218.789062 359.753906 218.417969 359.753906 218.207031 L 361.332031 214.050781 C 361.957031 215.628906 362.414062 216.917969 362.910156 218.207031 C 362.953125 218.417969 363.117188 218.789062 362.828125 218.789062 Z M 362.828125 218.789062 "/>
<path style=" stroke:none;fill-rule:nonzero;fill:rgb(7.843137%,29.411765%,58.039216%);fill-opacity:1;" d="M 319.058594 212.09375 C 318.644531 211.179688 317.605469 211.804688 316.855469 211.679688 C 316.621094 211.617188 316.367188 211.652344 316.15625 211.777344 C 315.945312 211.902344 315.792969 212.105469 315.734375 212.34375 L 311.125 223.613281 C 312.246094 223.15625 313.660156 224.28125 314.074219 222.660156 C 314.488281 221.035156 315.570312 220.453125 317.1875 220.703125 L 317.976562 220.703125 C 318.574219 220.492188 319.234375 220.574219 319.757812 220.929688 C 320.28125 221.28125 320.605469 221.859375 320.636719 222.492188 C 320.644531 222.832031 320.816406 223.148438 321.09375 223.34375 C 321.371094 223.542969 321.722656 223.59375 322.046875 223.488281 C 322.585938 223.488281 323.085938 223.488281 323.832031 223.488281 C 322.214844 219.582031 320.675781 215.839844 319.058594 212.09375 Z M 318.433594 218.914062 C 315.488281 219.164062 315.488281 219.164062 316.523438 216.421875 L 317.398438 214.007812 C 318.019531 215.589844 318.476562 216.835938 318.933594 218.167969 C 319.140625 218.582031 319.140625 218.832031 318.433594 218.914062 Z M 318.433594 218.914062 "/>
<path style=" stroke:none;fill-rule:nonzero;fill:rgb(5.098039%,30.196078%,58.823529%);fill-opacity:1;" d="M 268.976562 217.042969 C 268.566406 215.613281 267.261719 214.628906 265.777344 214.632812 C 264.582031 214.601562 263.433594 215.085938 262.621094 215.960938 C 262.621094 214.464844 262.621094 213.175781 262.621094 211.804688 C 262.621094 211.347656 262.914062 210.722656 262.082031 210.679688 C 261.25 210.640625 261.5 211.347656 261.5 211.761719 C 261.5 215.257812 261.5 218.75 261.5 222.242188 C 261.5 222.660156 261.210938 223.28125 262 223.40625 C 262.789062 223.53125 262.539062 222.78125 262.789062 222.449219 C 263.75 223.421875 265.15625 223.800781 266.476562 223.4375 C 267.792969 223.078125 268.8125 222.03125 269.140625 220.703125 C 269.359375 219.488281 269.300781 218.238281 268.976562 217.042969 Z M 267.8125 220.621094 C 267.660156 221.769531 266.722656 222.652344 265.570312 222.742188 C 264.355469 222.867188 263.230469 222.089844 262.914062 220.910156 C 262.722656 220.363281 262.625 219.789062 262.621094 219.207031 C 262.59375 218.351562 262.792969 217.503906 263.203125 216.753906 C 263.644531 215.941406 264.523438 215.46875 265.445312 215.546875 C 266.371094 215.542969 267.210938 216.101562 267.5625 216.960938 C 268.082031 218.113281 268.167969 219.410156 267.8125 220.621094 Z M 267.8125 220.621094 "/>
<path style=" stroke:none;fill-rule:nonzero;fill:rgb(5.098039%,30.196078%,58.431373%);fill-opacity:1;" d="M 241.859375 214.714844 C 239.84375 214.183594 237.773438 215.367188 237.207031 217.375 C 236.25 219.632812 237.167969 222.246094 239.324219 223.40625 C 239.546875 223.429688 239.769531 223.429688 239.988281 223.40625 L 242.648438 223.40625 C 243.1875 223.40625 244.015625 223.40625 243.769531 222.449219 C 243.519531 221.492188 242.980469 222.449219 242.605469 222.449219 C 240.527344 222.949219 239.074219 222.449219 238.453125 220.746094 C 238.121094 219.832031 238.078125 219.164062 239.40625 219.332031 C 240.03125 219.371094 240.652344 219.371094 241.277344 219.332031 L 243.683594 219.332031 C 244.058594 219.332031 244.347656 219.332031 244.472656 218.832031 C 244.582031 217.039062 243.527344 215.378906 241.859375 214.714844 Z M 242.398438 218.542969 L 239.574219 218.542969 C 239.160156 218.542969 238.535156 218.75 238.328125 218.542969 C 238.121094 218.332031 238.328125 217.5 238.742188 217.042969 C 239.199219 216.136719 240.191406 215.632812 241.191406 215.796875 C 242.21875 215.929688 243.015625 216.761719 243.105469 217.792969 C 243.269531 218.25 243.226562 218.582031 242.398438 218.542969 Z M 242.398438 218.542969 "/>
<path style=" stroke:none;fill-rule:nonzero;fill:rgb(6.27451%,29.803922%,58.431373%);fill-opacity:1;" d="M 294.847656 214.632812 C 293.679688 214.628906 292.5625 215.117188 291.769531 215.980469 C 290.980469 216.84375 290.589844 218 290.695312 219.164062 C 290.695312 221.660156 292.273438 223.863281 294.847656 223.574219 C 295.96875 223.648438 297.070312 223.234375 297.863281 222.4375 C 298.660156 221.640625 299.074219 220.539062 299 219.414062 C 299.183594 218.207031 298.828125 216.980469 298.027344 216.0625 C 297.226562 215.140625 296.066406 214.617188 294.847656 214.632812 Z M 297.878906 219.25 C 297.878906 221.410156 296.632812 222.78125 294.847656 222.742188 C 293.0625 222.699219 291.898438 221.285156 291.898438 219.125 C 291.78125 218.246094 292.039062 217.355469 292.605469 216.675781 C 293.175781 215.996094 294.003906 215.585938 294.890625 215.546875 C 296.882812 215.546875 298.085938 217.042969 298.042969 219.25 Z M 297.878906 219.25 "/>
<path style=" stroke:none;fill-rule:nonzero;fill:rgb(6.27451%,29.803922%,58.431373%);fill-opacity:1;" d="M 275.746094 214.714844 C 273.871094 214.195312 271.914062 215.238281 271.300781 217.085938 C 270.480469 218.886719 270.753906 221 272.007812 222.535156 C 273.378906 224.113281 275.289062 223.53125 277.03125 223.40625 C 277.738281 223.40625 277.902344 222.90625 277.613281 222.242188 C 276.855469 222.488281 276.078125 222.65625 275.289062 222.742188 C 273.832031 222.851562 272.527344 221.847656 272.257812 220.414062 C 272.257812 219.707031 272.257812 219.414062 273.003906 219.457031 L 277.570312 219.457031 C 278.070312 219.457031 278.359375 219.457031 278.402344 218.75 C 278.582031 216.945312 277.472656 215.257812 275.746094 214.714844 Z M 276.242188 218.542969 L 273.417969 218.542969 C 272.046875 218.542969 271.882812 218.25 272.589844 217.003906 C 273.011719 216.007812 274.054688 215.425781 275.121094 215.589844 C 276.136719 215.726562 276.933594 216.527344 277.074219 217.542969 C 277.28125 218.332031 277.03125 218.625 276.242188 218.542969 Z M 276.242188 218.542969 "/>
<path style=" stroke:none;fill-rule:nonzero;fill:rgb(1.176471%,56.470588%,27.843137%);fill-opacity:1;" d="M 182.058594 200.160156 L 182.058594 173.835938 L 187.414062 173.835938 L 187.414062 185.0625 L 196.925781 173.835938 L 203.484375 173.835938 L 192.605469 186.019531 L 203.902344 200.160156 L 196.964844 200.160156 L 187.414062 187.683594 L 187.414062 200.160156 Z M 182.058594 200.160156 "/>
<path style=" stroke:none;fill-rule:nonzero;fill:rgb(1.176471%,56.470588%,27.843137%);fill-opacity:1;" d="M 208.71875 200.160156 L 208.71875 173.835938 L 214.53125 173.835938 C 216.773438 173.835938 218.269531 173.835938 218.976562 173.835938 C 220.082031 173.953125 221.160156 174.25 222.171875 174.707031 C 223.015625 175.125 223.773438 175.6875 224.417969 176.371094 C 225.074219 177.078125 225.585938 177.914062 225.910156 178.824219 C 226.285156 179.765625 226.46875 180.769531 226.449219 181.777344 C 226.46875 182.890625 226.257812 183.996094 225.828125 185.023438 C 225.421875 185.957031 224.859375 186.8125 224.167969 187.558594 C 223.519531 188.234375 222.742188 188.773438 221.882812 189.140625 C 220.957031 189.550781 219.980469 189.828125 218.976562 189.972656 C 218.089844 190.023438 217.203125 190.023438 216.316406 189.972656 L 214.074219 189.972656 L 214.074219 199.953125 Z M 214.074219 177.867188 L 214.074219 186.1875 L 215.195312 186.1875 C 216.191406 186.21875 217.183594 186.105469 218.144531 185.855469 C 218.609375 185.691406 219.046875 185.453125 219.433594 185.148438 C 219.875 184.828125 220.242188 184.414062 220.511719 183.941406 C 220.792969 183.328125 220.9375 182.660156 220.929688 181.984375 C 220.972656 180.839844 220.460938 179.738281 219.558594 179.035156 C 218.347656 178.175781 216.882812 177.765625 215.40625 177.867188 Z M 214.074219 177.867188 "/>
<path style=" stroke:none;fill-rule:nonzero;fill:rgb(1.176471%,56.470588%,27.843137%);fill-opacity:1;" d="M 231.683594 200.160156 L 231.683594 173.835938 L 237.457031 173.835938 C 239.699219 173.835938 241.191406 173.835938 241.898438 173.835938 C 242.976562 173.945312 244.027344 174.226562 245.015625 174.667969 C 245.875 175.070312 246.648438 175.636719 247.296875 176.332031 C 247.957031 177.039062 248.464844 177.871094 248.792969 178.785156 C 249.136719 179.730469 249.304688 180.730469 249.292969 181.738281 C 249.304688 183.886719 248.484375 185.957031 247.007812 187.515625 C 246.382812 188.203125 245.617188 188.742188 244.765625 189.097656 C 243.824219 189.507812 242.832031 189.789062 241.816406 189.929688 C 240.929688 189.980469 240.042969 189.980469 239.160156 189.929688 L 236.914062 189.929688 L 236.914062 199.910156 Z M 237 177.867188 L 237 186.1875 L 238.121094 186.1875 C 239.113281 186.21875 240.105469 186.105469 241.070312 185.855469 C 241.535156 185.695312 241.972656 185.457031 242.355469 185.148438 C 242.820312 184.851562 243.191406 184.433594 243.4375 183.941406 C 243.730469 183.332031 243.875 182.660156 243.851562 181.984375 C 243.957031 180.777344 243.460938 179.59375 242.523438 178.824219 C 241.3125 177.972656 239.847656 177.5625 238.371094 177.660156 Z M 237 177.867188 "/>
<path style=" stroke:none;fill-rule:nonzero;fill:rgb(1.176471%,56.470588%,27.843137%);fill-opacity:1;" d="M 267.398438 200.160156 L 267.398438 173.835938 L 275.703125 173.835938 L 282.390625 193.839844 L 288.910156 173.835938 L 297.214844 173.835938 L 297.214844 200.160156 L 291.980469 200.160156 L 291.980469 178.203125 L 284.546875 200.160156 L 279.566406 200.160156 L 272.296875 178.203125 L 272.296875 200.160156 Z M 267.398438 200.160156 "/>
<path style=" stroke:none;fill-rule:nonzero;fill:rgb(1.176471%,56.470588%,27.843137%);fill-opacity:1;" d="M 304.648438 200.160156 L 304.648438 173.835938 L 310.003906 173.835938 L 310.003906 200.160156 Z M 304.648438 200.160156 "/>
<path style=" stroke:none;fill-rule:nonzero;fill:rgb(1.176471%,56.470588%,27.843137%);fill-opacity:1;" d="M 317.355469 200.160156 L 317.355469 173.835938 L 323.917969 173.835938 L 334.296875 194.003906 L 334.296875 173.835938 L 339.074219 173.835938 L 339.074219 200.160156 L 332.472656 200.160156 L 322.089844 179.988281 L 322.089844 200.160156 Z M 317.355469 200.160156 "/>
<path style=" stroke:none;fill-rule:nonzero;fill:rgb(1.176471%,56.470588%,27.843137%);fill-opacity:1;" d="M 346.339844 200.160156 L 346.339844 173.835938 L 351.65625 173.835938 L 351.65625 200.160156 Z M 346.339844 200.160156 "/>
<path style=" stroke:none;fill-rule:nonzero;fill:rgb(1.176471%,56.470588%,27.843137%);fill-opacity:1;" d="M 359.007812 200.160156 L 359.007812 173.835938 L 365.445312 173.835938 L 375.867188 194.003906 L 375.867188 173.835938 L 380.601562 173.835938 L 380.601562 200.160156 L 374.125 200.160156 L 363.742188 179.988281 L 363.742188 200.160156 Z M 359.007812 200.160156 "/>
<path style=" stroke:none;fill-rule:nonzero;fill:rgb(1.176471%,56.470588%,27.843137%);fill-opacity:1;" d="M 409.421875 174.667969 L 409.089844 179.40625 C 408.070312 178.890625 406.976562 178.527344 405.851562 178.328125 C 404.644531 178.015625 403.402344 177.847656 402.15625 177.828125 C 400.5 177.816406 398.867188 178.183594 397.378906 178.910156 C 395.980469 179.628906 394.835938 180.761719 394.097656 182.152344 C 392.578125 185.21875 392.578125 188.820312 394.097656 191.882812 C 394.824219 193.269531 395.996094 194.367188 397.421875 195.003906 C 398.800781 195.691406 400.324219 196.050781 401.863281 196.042969 L 403.566406 196.042969 C 404.074219 195.96875 404.574219 195.855469 405.0625 195.710938 L 405.0625 189.140625 L 399.539062 189.140625 L 399.539062 184.980469 L 410.128906 184.980469 L 410.128906 199.035156 C 408.664062 199.507812 407.164062 199.855469 405.644531 200.078125 C 404.171875 200.3125 402.6875 200.4375 401.199219 200.449219 C 399.355469 200.457031 397.519531 200.175781 395.757812 199.617188 C 392.34375 198.578125 389.597656 196.015625 388.328125 192.675781 C 387.632812 190.914062 387.28125 189.035156 387.289062 187.144531 C 387.253906 184.738281 387.828125 182.363281 388.949219 180.238281 C 390.148438 178.160156 391.960938 176.503906 394.140625 175.5 C 396.640625 174.261719 399.40625 173.648438 402.195312 173.710938 C 404.640625 173.628906 407.082031 173.953125 409.421875 174.667969 Z M 409.421875 174.667969 "/>
</g>
</svg>
